<?xml version="1.0" standalone="no"?>
<!DOCTYPE svg PUBLIC "-//W3C//DTD SVG 20010904//EN"
        "http://www.w3.org/TR/2001/REC-SVG-20010904/DTD/svg10.dtd">
<svg version="1.0" xmlns="http://www.w3.org/2000/svg"
     width="1024.000000pt" height="1024.000000pt" viewBox="0 0 1024.000000 1024.000000"
     preserveAspectRatio="xMidYMid meet">

    <g transform="translate(0.000000,1024.000000) scale(0.100000,-0.100000)"
       fill="#000000" stroke="none">
        <path d="M0 5120 l0 -5120 5120 0 5120 0 -1 4772 c0 2625 -3 4767 -6 4761 -2
-7 -13 -13 -23 -13 -14 0 -21 10 -26 35 -3 20 -4 39 0 42 8 9 -14 34 -25 27
-12 -7 -79 17 -79 29 0 5 9 7 20 3 11 -3 29 -9 40 -12 16 -5 20 -2 20 15 0 14
-6 21 -20 21 -11 0 -20 7 -20 15 0 8 -9 15 -20 15 -11 0 -20 5 -20 10 0 12 37
13 42 2 2 -5 15 -12 31 -16 23 -5 27 -3 27 14 0 16 -5 19 -30 14 -23 -5 -30
-3 -30 9 0 8 -13 17 -31 21 -19 3 -28 10 -23 17 4 8 9 7 15 -2 6 -11 11 -11
20 -2 17 17 2 33 -32 33 -16 0 -29 5 -29 11 0 6 9 9 20 6 10 -3 21 0 23 7 3 8
8 7 20 -2 10 -8 25 -11 38 -7 23 7 23 8 -4 22 -21 11 -32 11 -49 2 -16 -9 -23
-9 -26 -1 -2 8 -9 8 -23 -1 -16 -10 -21 -9 -29 3 -16 25 -11 31 23 28 39 -2
57 7 57 29 0 15 -2 15 -18 0 -11 -11 -22 -13 -32 -7 -9 5 -19 5 -27 -2 -10 -8
-13 -5 -13 11 0 11 6 21 14 21 7 0 19 7 26 15 15 18 -2 45 -29 45 -13 -1 -13
-3 4 -16 17 -12 18 -16 6 -24 -10 -6 -19 -3 -28 8 -19 26 -16 60 7 67 11 3 20
11 20 16 0 17 -21 9 -45 -17 -18 -20 -27 -23 -37 -15 -7 7 -22 18 -33 26 -20
14 -20 14 2 12 12 -1 25 -7 27 -14 3 -7 10 -13 16 -13 16 0 11 32 -7 46 -16
12 -16 13 -1 14 9 0 18 -5 20 -11 7 -20 49 13 46 36 -3 21 -48 35 -48 16 0 -6
9 -11 20 -11 11 0 20 -4 20 -10 0 -16 -33 -11 -67 10 -33 20 -45 37 -19 27 8
-3 29 -1 48 5 18 6 39 13 47 15 11 3 12 6 3 15 -19 19 -14 29 8 16 28 -18 35
-3 11 21 -12 12 -23 21 -25 21 -3 0 -10 -16 -16 -35 -6 -19 -15 -35 -20 -35
-12 0 -19 25 -10 40 9 15 2 40 -10 40 -5 0 -13 -12 -18 -27 l-10 -28 -7 28
c-7 28 -35 38 -35 12 0 -8 -4 -15 -10 -15 -5 0 -10 7 -10 15 0 13 -563 15
-4930 15 l-4930 0 0 -5120z m9804 5085 c7 -19 -5 -19 -30 0 -19 14 -19 14 2
15 12 0 24 -7 28 -15z m103 -31 c-3 -3 -12 -4 -19 -1 -8 3 -5 6 6 6 11 1 17
-2 13 -5z m-92 -24 c3 -5 2 -10 -4 -10 -5 0 -13 5 -16 10 -3 6 -2 10 4 10 5 0
13 -4 16 -10z m-35 -30 c0 -5 -4 -10 -10 -10 -5 0 -10 5 -10 10 0 6 5 10 10
10 6 0 10 -4 10 -10z m35 -30 c-3 -5 -11 -10 -16 -10 -6 0 -7 5 -4 10 3 6 11
10 16 10 6 0 7 -4 4 -10z m104 -3 c-2 -1 -14 -11 -26 -21 -20 -16 -23 -17 -23
-3 0 8 8 18 18 20 21 6 37 8 31 4z m-79 -57 c0 -5 -5 -10 -11 -10 -5 0 -7 5
-4 10 3 6 8 10 11 10 2 0 4 -4 4 -10z m147 -124 c-2 -5 -8 -11 -14 -13 -12 -4
-25 36 -16 50 7 12 35 -23 30 -37z m33 -237 c0 -5 -4 -8 -9 -5 -5 4 -12 0 -14
-6 -3 -8 -6 -6 -6 5 -1 9 6 17 14 17 8 0 15 -5 15 -11z m50 -19 c0 -16 -4 -30
-10 -30 -5 0 -10 14 -10 30 0 17 5 30 10 30 6 0 10 -13 10 -30z m-20 -80 c0
-5 -4 -10 -10 -10 -5 0 -10 5 -10 10 0 6 5 10 10 10 6 0 10 -4 10 -10z m60
-20 c0 -5 -7 -10 -15 -10 -8 0 -15 5 -15 10 0 6 7 10 15 10 8 0 15 -4 15 -10z
m59 -29 c7 -5 9 -11 5 -14 -5 -3 -15 1 -22 9 -14 16 -5 18 17 5z m-5160 -297
c37 -9 98 -32 136 -52 82 -41 306 -172 420 -247 44 -29 100 -62 123 -74 24
-12 102 -59 174 -104 72 -45 207 -128 302 -185 384 -230 460 -282 520 -355 60
-74 90 -151 94 -242 4 -111 8 -125 36 -125 12 0 26 -3 29 -7 6 -5 37 -12 74
-15 6 -1 9 -7 6 -15 -3 -7 3 -16 13 -20 10 -4 19 -2 22 5 6 18 62 15 69 -4 4
-11 8 -12 13 -4 5 8 20 6 53 -7 36 -15 44 -21 37 -33 -16 -24 -13 -25 65 -23
76 2 90 -2 56 -15 -18 -6 -18 -9 -5 -32 13 -22 15 -22 11 -4 -3 13 3 28 13 37
10 8 20 21 22 28 8 25 28 -3 28 -39 0 -31 -6 -41 -37 -62 -45 -31 -66 -43
-122 -70 -24 -12 -69 -39 -100 -59 -31 -21 -79 -50 -106 -65 -58 -31 -116 -75
-98 -76 6 0 18 7 27 15 8 9 30 22 48 30 18 8 49 25 70 37 20 13 52 33 72 45
20 12 36 18 36 13 0 -5 -15 -16 -34 -25 -36 -17 -55 -45 -32 -45 7 0 19 7 26
15 7 8 18 15 24 15 7 0 32 9 55 21 24 11 45 18 48 16 6 -7 -91 -83 -131 -104
-17 -9 -62 -38 -100 -65 -38 -26 -75 -48 -83 -48 -7 0 -13 -4 -13 -10 0 -5 -6
-10 -13 -10 -8 0 -22 -9 -32 -20 -10 -11 -15 -20 -11 -20 7 0 58 31 66 40 9
10 81 50 90 50 5 0 32 13 60 30 55 33 65 30 23 -6 -16 -13 -23 -24 -17 -24 6
0 17 6 23 14 18 21 69 30 87 15 24 -20 46 -81 40 -112 l-6 -28 45 31 c25 17
59 36 76 42 18 6 55 26 83 44 49 33 111 53 123 40 3 -3 9 -26 13 -51 5 -36 4
-45 -8 -45 -8 0 -12 -6 -8 -15 5 -13 -134 -125 -311 -250 l-28 -20 21 -22 21
-22 74 42 c289 168 317 182 326 173 3 -3 -11 -11 -30 -19 -33 -14 -67 -47 -36
-35 53 20 57 19 67 -11 7 -20 7 -32 0 -39 -8 -8 -8 -15 1 -26 22 -26 22 -58 0
-63 -13 -4 -16 -8 -9 -13 7 -4 -5 -17 -29 -33 -22 -15 -43 -27 -45 -27 -3 0
-47 -24 -98 -53 -51 -30 -122 -67 -158 -85 -36 -17 -76 -40 -90 -51 -19 -16
-10 -14 37 9 85 41 93 37 10 -6 -37 -19 -72 -32 -77 -29 -4 3 -10 1 -12 -4 -1
-5 -93 -54 -203 -109 -110 -55 -209 -109 -219 -121 -17 -19 -18 -24 -5 -47 7
-15 24 -31 36 -37 19 -9 31 -5 69 23 57 41 816 420 841 420 10 0 46 -13 79
-29 70 -33 221 -81 262 -83 15 -1 62 6 105 15 61 14 87 15 117 7 134 -36 222
-208 206 -399 -13 -158 -71 -269 -161 -305 -64 -26 -125 -63 -125 -74 0 -5 24
-14 54 -21 87 -19 202 -112 257 -208 16 -29 42 -85 57 -125 25 -68 27 -84 27
-233 0 -180 -16 -263 -82 -428 -19 -49 -33 -91 -30 -93 3 -3 21 2 41 10 20 9
52 23 71 31 46 20 44 11 -4 -19 -40 -26 -161 -69 -169 -61 -2 2 7 18 21 34 29
35 75 150 108 266 15 56 23 119 26 210 6 155 -9 241 -61 348 -64 133 -157 216
-284 253 l-73 21 37 29 c21 16 67 45 103 64 79 42 121 97 152 202 31 101 24
238 -15 326 -41 89 -120 152 -191 152 -42 0 -142 -37 -275 -102 -224 -108
-601 -312 -642 -347 -21 -18 -41 -31 -44 -28 -20 19 199 157 441 278 88 44
164 84 170 90 28 28 -401 -188 -482 -243 -23 -15 -46 -28 -51 -28 -6 0 -43
-25 -83 -55 -40 -30 -80 -55 -88 -56 -47 -3 -84 6 -161 40 -47 21 -98 41 -115
44 -16 3 -38 9 -47 12 -15 6 -17 -2 -16 -72 1 -43 -5 -96 -12 -118 -15 -46
-58 -135 -65 -135 -3 0 3 17 14 38 29 57 51 140 51 194 0 60 -19 108 -66 165
l-36 44 41 53 c97 125 95 280 -5 377 l-33 32 28 41 c50 73 72 126 78 190 7 79
-7 123 -58 182 -21 25 -39 47 -39 50 0 3 13 22 30 42 16 20 38 66 50 101 36
114 23 216 -38 280 -30 32 -32 38 -21 56 37 58 44 83 44 155 0 60 -6 86 -28
134 -34 73 -87 144 -129 174 -55 37 -182 118 -211 133 -15 8 -145 86 -288 174
-144 88 -314 192 -378 230 -65 39 -162 97 -217 130 -414 248 -450 265 -605
285 -83 10 -187 1 -245 -20 -80 -30 -703 -384 -924 -525 -60 -38 -115 -69
-105 -58 13 14 211 139 350 220 61 36 121 73 135 83 45 31 470 271 517 292 25
11 66 24 92 28 63 12 211 3 290 -16z m791 11 c13 -15 8 -19 -22 -16 -30 3 -29
-18 2 -34 34 -18 40 -53 14 -79 -18 -19 -55 -21 -72 -4 -19 19 -14 26 19 24
43 -2 50 22 10 30 -26 5 -31 11 -31 35 0 17 8 34 22 43 28 20 42 20 58 1z
m-772 -169 c27 -9 76 -33 108 -53 33 -19 122 -73 199 -118 359 -212 623 -370
765 -457 85 -51 214 -127 285 -168 148 -85 220 -148 231 -204 13 -72 0 -150
-34 -202 -37 -58 -82 -89 -432 -294 -69 -41 -163 -97 -210 -125 -47 -28 -128
-76 -180 -107 -129 -75 -257 -152 -496 -296 -111 -66 -210 -120 -220 -120 -10
1 -54 -6 -98 -16 -54 -12 -97 -16 -137 -12 -66 7 -180 52 -254 101 -78 50
-375 215 -389 215 -4 0 -4 -5 -1 -10 4 -6 -6 -5 -22 2 -41 18 -74 40 -69 45 3
3 21 -5 41 -17 20 -12 38 -20 40 -18 7 6 -156 107 -365 226 -102 58 -204 118
-227 133 -23 16 -44 29 -47 29 -3 0 -34 17 -69 39 -35 21 -73 42 -85 45 -12 4
-43 22 -69 40 -27 18 -63 41 -82 50 -32 17 -34 17 -27 1 6 -16 5 -16 -21 0
-78 50 -105 94 -110 184 -7 123 54 201 239 309 142 82 184 107 363 217 520
320 922 554 995 580 95 34 276 35 378 1z m1138 9 c25 -38 12 -71 -31 -79 -45
-9 -55 -2 -55 36 0 62 56 89 86 43z m314 -173 c19 -13 31 -22 25 -20 -22 7
-115 59 -115 63 0 8 53 -18 90 -43z m-4047 -54 c171 -107 358 -218 467 -278
63 -35 139 -78 168 -97 29 -18 56 -33 60 -33 4 0 23 -14 42 -30 80 -67 -20
-23 -264 119 -49 28 -91 51 -93 51 -2 0 -34 20 -71 43 -37 24 -89 57 -117 72
-61 35 -231 150 -258 176 -11 10 -29 21 -39 25 -10 3 -18 10 -18 15 0 12 20 1
123 -63z m157 -33 c15 -13 166 -100 310 -178 41 -22 81 -45 89 -51 15 -12 135
-79 219 -123 51 -27 66 -43 38 -43 -7 0 -47 20 -87 44 -129 76 -361 210 -449
260 -47 27 -94 56 -105 66 -11 9 -50 34 -87 54 -38 21 -68 40 -68 42 0 6 123
-56 140 -71z m-305 -85 c17 -12 26 -20 20 -18 -18 6 -145 80 -145 84 0 6 90
-42 125 -66z m285 -65 c168 -96 209 -120 315 -178 49 -27 101 -57 115 -67 14
-9 51 -31 83 -47 48 -25 55 -32 43 -43 -12 -9 -32 -2 -108 43 -51 30 -124 71
-163 92 -38 21 -101 58 -138 82 -37 23 -69 43 -71 43 -5 0 -166 103 -240 153
-72 49 -82 66 -14 26 29 -18 109 -64 178 -104z m4290 15 c0 -5 -2 -10 -4 -10
-3 0 -8 5 -11 10 -3 6 -1 10 4 10 6 0 11 -4 11 -10z m-4381 -54 c33 -19 79
-48 103 -64 24 -16 106 -62 183 -102 167 -86 272 -146 281 -161 3 -6 2 -15 -3
-20 -5 -5 -28 3 -57 21 -26 17 -129 77 -229 133 -100 57 -213 125 -252 152
-117 80 -129 99 -26 41z m186 -201 c127 -67 319 -176 329 -186 6 -5 3 -11 -6
-14 -8 -3 -43 11 -79 31 -35 20 -93 53 -129 74 -36 20 -86 50 -110 66 -25 17
-87 54 -137 84 -51 29 -93 56 -93 60 0 5 33 -10 73 -32 39 -22 108 -60 152
-83z m825 111 c0 -2 -8 -10 -17 -17 -16 -13 -17 -12 -4 4 13 16 21 21 21 13z
m3355 -6 c3 -6 -1 -7 -9 -4 -18 7 -21 14 -7 14 6 0 13 -4 16 -10z m190 -105
c11 -8 -20 5 -70 31 -49 26 -94 51 -100 57 -16 14 147 -69 170 -88z m-115 5
c8 -5 11 -10 5 -10 -5 0 -17 5 -25 10 -8 5 -10 10 -5 10 6 0 17 -5 25 -10z
m45 -28 c-3 -3 -11 0 -18 7 -9 10 -8 11 6 5 10 -3 15 -9 12 -12z m125 -2 c8
-5 11 -10 5 -10 -5 0 -17 5 -25 10 -8 5 -10 10 -5 10 6 0 17 -5 25 -10z m310
-24 c0 -2 -9 -2 -20 1 -11 3 -20 9 -20 15 0 5 9 4 20 -2 11 -6 20 -12 20 -14z
m-4814 -1 c18 -13 18 -14 -4 -8 -12 3 -25 9 -28 14 -8 14 10 11 32 -6z m4594
-31 c0 -2 -9 0 -20 6 -11 6 -20 13 -20 16 0 2 9 0 20 -6 11 -6 20 -13 20 -16z
m-4734 -40 c18 -14 18 -14 -6 -3 -31 14 -36 19 -24 19 6 0 19 -7 30 -16z m314
-24 c14 -9 34 -20 45 -24 31 -11 135 -80 135 -89 0 -5 -6 -7 -12 -5 -22 5
-247 143 -248 150 0 9 45 -9 80 -32z m-250 -16 c0 -2 -9 0 -20 6 -11 6 -20 13
-20 16 0 2 9 0 20 -6 11 -6 20 -13 20 -16z m5086 -21 c-6 -6 -36 9 -36 18 0 5
9 4 20 -3 10 -7 18 -14 16 -15z m-4830 -46 c54 -29 107 -56 117 -60 9 -3 17
-11 17 -16 0 -14 -33 -1 -105 43 -33 20 -64 36 -70 36 -11 0 -74 49 -64 50 3
0 50 -24 105 -53z m4681 12 c96 -52 169 -102 155 -107 -7 -2 -30 7 -50 20 -20
14 -58 33 -84 44 -57 23 -122 73 -96 74 10 0 43 -14 75 -31z m-5331 -4 c10 -8
15 -14 9 -14 -5 0 -19 6 -29 14 -11 8 -15 15 -10 15 6 0 19 -7 30 -15z m504
-6 c17 -13 18 -17 5 -10 -33 17 -51 31 -40 31 6 0 21 -10 35 -21z m102 -51
c29 -17 60 -37 68 -43 8 -6 36 -19 63 -29 42 -16 63 -36 37 -36 -11 0 -240
130 -240 136 0 11 24 1 72 -28z m5456 5 c19 -9 47 -38 67 -68 33 -49 35 -57
35 -132 0 -72 -4 -88 -35 -151 -39 -76 -73 -108 -160 -148 -45 -21 -64 -24
-98 -19 -86 15 -128 55 -153 148 -16 57 -12 117 13 209 39 143 200 221 331
161z m-5878 -49 c0 -3 -3 -3 -7 -1 -5 2 -25 11 -45 21 -20 9 -40 21 -44 27 -3
6 17 -1 45 -15 28 -15 51 -29 51 -32z m-245 26 c-3 -5 3 -10 13 -10 30 0 105
-36 216 -104 55 -34 142 -84 191 -110 78 -42 374 -205 383 -212 2 -1 -2 -23
-10 -48 l-13 -45 -53 50 c-29 27 -57 49 -62 49 -5 0 -46 23 -92 51 -45 28
-101 60 -123 71 -41 21 -228 138 -300 188 -22 15 -62 39 -90 53 -68 35 -89 52
-81 65 4 7 12 12 17 12 6 0 7 -4 4 -10z m450 -137 c83 -44 193 -106 245 -137
91 -54 150 -71 150 -43 0 7 5 4 11 -5 11 -19 -13 -78 -31 -78 -5 0 -63 33
-127 74 -65 40 -140 85 -168 101 -80 43 -228 133 -255 154 l-25 20 25 -3 c14
-2 93 -39 175 -83z m5015 -65 c23 -25 25 -37 8 -73 -16 -35 -29 -31 -15 5 9
23 8 33 -1 42 -16 16 -32 -4 -32 -39 0 -35 -18 -36 -35 -3 -17 33 -9 61 23 79
24 15 29 14 52 -11z m-5226 -43 c11 -8 28 -15 37 -15 10 0 19 -4 21 -9 2 -5
43 -25 91 -44 48 -20 136 -66 195 -103 59 -37 127 -80 151 -95 41 -25 45 -32
62 -99 24 -92 62 -175 87 -191 20 -12 19 -14 -15 -56 -20 -24 -39 -43 -43 -43
-8 0 -104 56 -250 146 -47 28 -150 89 -230 133 -79 45 -147 86 -150 90 -3 4
-29 20 -58 34 -30 15 -63 34 -75 43 -21 14 -21 15 -2 12 11 -2 26 -9 34 -16 7
-7 21 -10 29 -7 9 3 13 3 9 -1 -8 -9 43 -45 54 -38 4 2 10 0 14 -6 3 -5 11
-10 17 -10 6 0 9 3 5 6 -3 4 0 13 8 21 11 11 19 11 35 3 11 -6 17 -16 14 -22
-4 -7 -3 -8 4 -4 7 4 29 -2 50 -13 20 -11 102 -52 182 -92 80 -39 156 -79 170
-89 36 -25 151 -82 156 -77 4 4 -151 101 -261 164 -59 34 -95 77 -71 87 6 2
-2 5 -19 6 -26 1 -27 3 -10 10 11 4 37 6 58 3 21 -3 46 -6 55 -7 22 -2 146
-66 150 -77 5 -11 22 -1 22 12 0 6 -4 7 -10 4 -5 -3 -10 -2 -10 2 0 8 -58 45
-145 93 -103 57 -381 236 -391 251 -8 14 9 10 30 -6z m5219 -103 c9 -10 20
-32 23 -49 5 -26 1 -37 -19 -57 -15 -14 -34 -26 -43 -26 -56 0 -75 92 -28 129
33 26 46 26 67 3z m-4188 -97 l20 -16 -20 10 c-11 5 -29 17 -40 26 l-20 16 20
-10 c11 -5 29 -17 40 -26z m3308 -29 c50 -47 44 -137 -14 -213 -32 -41 -96
-86 -304 -209 -60 -36 -141 -86 -178 -110 -86 -57 -105 -64 -142 -52 -49 16
-65 43 -65 107 0 65 24 124 66 162 24 22 162 105 484 294 91 53 115 57 153 21z
m-3498 -19 c162 -89 456 -263 501 -297 62 -47 94 -106 94 -174 0 -57 -28 -91
-84 -101 -40 -8 -47 -4 -381 193 -204 121 -228 140 -261 210 -31 65 -39 157
-15 185 22 27 79 20 146 -16z m330 -25 c102 -57 157 -94 150 -100 -2 -3 -36
15 -73 41 -38 25 -97 59 -131 76 -33 17 -61 33 -61 36 0 8 34 -7 115 -53z
m-1548 -105 c3 -33 1 -38 -14 -35 -13 2 -18 13 -20 41 -1 30 2 37 14 35 10 -2
17 -17 20 -41z m-44 -33 c9 -23 13 -44 10 -48 -9 -8 -33 14 -33 30 0 8 -9 14
-19 14 -10 0 -21 7 -24 14 -4 10 -1 13 8 10 8 -3 16 3 20 16 8 26 17 18 38
-36z m5267 52 c0 -3 -4 -8 -10 -11 -5 -3 -10 -1 -10 4 0 6 5 11 10 11 6 0 10
-2 10 -4z m-5178 -18 c3 -7 4 -28 2 -46 -2 -28 1 -32 16 -27 21 7 32 -5 21
-24 -7 -10 -12 -10 -30 0 -11 8 -21 20 -21 28 0 11 -3 11 -15 1 -12 -10 -15
-10 -15 4 0 9 5 16 10 16 6 0 10 14 10 30 0 30 14 41 22 18z m1778 -63 c0 -10
-16 -4 -40 16 l-25 20 33 -16 c17 -8 32 -18 32 -20z m-2116 -27 c35 -41 35
-42 16 -55 -19 -13 -26 -11 -70 17 -54 35 -62 56 -27 70 37 15 44 12 81 -32z
m677 6 c61 -31 87 -62 94 -115 11 -81 -6 -107 -86 -132 -24 -8 -109 35 -144
72 -25 27 -29 39 -27 79 2 51 29 112 49 112 7 0 13 4 13 9 0 11 62 -4 101 -25z
m4959 -14 c0 -5 -7 -10 -15 -10 -8 0 -15 5 -15 10 0 6 7 10 15 10 8 0 15 -4
15 -10z m-52 -35 c-3 -3 -9 2 -12 12 -6 14 -5 15 5 6 7 -7 10 -15 7 -18z m89
-11 c-4 -29 -12 -38 -27 -29 -8 5 -8 10 0 20 8 9 8 15 0 20 -15 9 -2 25 16 18
8 -3 13 -15 11 -29z m-3285 -73 c20 -12 40 -26 44 -32 8 -14 8 -14 -83 44 -35
21 -63 41 -63 44 0 3 15 -4 33 -16 17 -11 49 -29 69 -40z m3298 24 c0 -8 -7
-15 -15 -15 -8 0 -15 -5 -15 -12 0 -6 -3 -8 -7 -5 -3 4 2 16 12 27 22 24 25
25 25 5z m-5411 -56 c63 -33 140 -75 170 -93 169 -101 415 -239 551 -310 85
-45 175 -95 199 -112 l45 -31 1 -74 c1 -83 22 -138 76 -201 l31 -37 -35 -30
c-46 -41 -68 -99 -74 -197 l-6 -81 -61 39 c-165 106 -361 227 -456 281 -58 33
-161 94 -230 135 -69 42 -192 115 -275 162 -148 86 -269 160 -292 180 -7 5
-17 10 -22 10 -5 0 -13 4 -16 10 -7 11 23 2 43 -13 27 -21 111 -13 132 13 3 3
20 12 37 19 18 7 30 17 27 22 -3 5 -2 9 3 10 63 6 72 4 138 -36 39 -24 142
-80 230 -126 88 -45 178 -95 200 -109 45 -31 120 -70 132 -70 4 0 1 5 -7 10
-12 8 -12 10 5 11 l20 0 -20 10 c-16 7 -14 8 9 4 22 -5 27 -3 23 9 -5 11 2 14
30 11 l35 -3 -35 24 c-20 13 -38 24 -41 24 -18 0 -285 169 -274 173 9 4 7 6
-4 6 -22 1 -23 8 -4 27 17 17 30 19 20 2 -4 -7 -3 -8 4 -4 13 8 76 -22 140
-66 58 -40 471 -248 491 -248 30 1 -46 55 -182 130 -123 68 -508 294 -587 345
-19 13 -73 44 -120 70 -117 65 -161 96 -153 108 4 6 -2 8 -14 5 -12 -3 -20 0
-20 8 0 8 7 14 16 15 10 0 12 2 4 6 -13 5 -18 23 -6 23 3 0 58 -27 122 -61z
m812 -62 l127 -62 6 -41 c9 -66 36 -135 76 -196 38 -57 38 -57 17 -75 -11 -10
-28 -31 -37 -46 l-17 -28 -29 24 c-35 29 -224 153 -349 229 -127 77 -135 82
-135 89 0 4 6 7 13 6 37 -1 47 4 47 27 0 26 22 50 36 38 4 -4 3 0 -4 10 -10
13 -10 18 -1 24 7 4 15 2 17 -4 6 -18 20 -14 57 15 35 28 37 43 4 43 -10 0
-19 5 -19 11 0 20 62 -1 191 -64z m3904 17 c45 -18 58 -116 24 -189 -30 -63
-83 -106 -261 -205 -87 -49 -187 -110 -224 -136 -107 -77 -162 -86 -216 -37
-37 34 -16 148 38 212 34 39 59 56 214 148 47 27 145 87 219 131 128 79 164
92 206 76z m-3279 -157 c137 -78 267 -155 288 -169 46 -32 95 -100 97 -135 4
-77 0 -93 -30 -124 -16 -16 -40 -29 -52 -29 -12 0 -86 37 -163 83 -78 46 -188
110 -246 142 -180 99 -206 122 -236 207 -31 90 -2 168 64 168 18 0 117 -51
278 -143z m-939 57 c-3 -3 -12 -4 -19 -1 -8 3 -5 6 6 6 11 1 17 -2 13 -5z
m3243 -51 c31 -26 32 -28 28 -97 -3 -56 -9 -79 -30 -109 -31 -46 -37 -50 -278
-197 -102 -62 -221 -135 -265 -162 -103 -63 -165 -81 -265 -77 -90 5 -131 23
-445 203 -326 187 -342 199 -363 281 -20 77 19 175 71 175 10 0 83 -38 161
-83 204 -121 403 -233 461 -259 38 -16 69 -22 125 -22 91 0 181 35 317 122
229 145 410 251 430 252 12 0 36 -12 53 -27z m-1104 -70 c21 -14 72 -42 112
-60 41 -19 71 -37 68 -41 -3 -3 -47 16 -97 42 -121 63 -158 86 -138 86 9 0 34
-12 55 -27z m-3046 -69 c0 -2 -13 2 -30 11 -16 9 -30 18 -30 21 0 2 14 -2 30
-11 17 -9 30 -18 30 -21z m3507 -30 c-3 -3 -12 -4 -19 -1 -8 3 -5 6 6 6 11 1
17 -2 13 -5z m1636 -159 c46 -47 43 -131 -7 -203 -30 -43 -20 -37 -246 -167
-96 -56 -215 -127 -265 -159 -70 -44 -95 -56 -115 -51 -66 17 -89 61 -76 150
12 74 67 124 292 262 110 67 226 137 259 156 75 44 122 47 158 12z m-3488 -20
c22 -12 103 -59 180 -105 77 -45 178 -105 225 -132 47 -27 96 -59 108 -71 37
-34 62 -92 62 -143 0 -39 -5 -51 -34 -80 -19 -19 -44 -34 -56 -34 -12 0 -103
49 -203 109 -100 60 -211 125 -247 144 -100 55 -147 93 -172 139 -29 57 -31
137 -3 168 40 44 69 46 140 5z m757 -16 c28 -37 36 -140 14 -174 -20 -31 -65
-34 -90 -6 -19 21 -35 163 -22 196 10 26 75 16 98 -16z m1739 -95 c35 -38 33
-133 -5 -198 -32 -55 -52 -70 -236 -182 -80 -48 -190 -117 -245 -154 -158
-106 -243 -132 -358 -111 -74 14 -155 54 -447 226 -244 143 -289 176 -315 231
-21 45 -19 122 5 161 33 55 57 53 172 -15 149 -87 465 -261 523 -289 70 -32
170 -32 242 1 54 25 190 107 393 236 213 136 227 141 271 94z m2631 -124 c16
-66 22 -233 9 -280 -9 -33 -79 -72 -501 -281 -135 -66 -256 -130 -268 -142
-47 -43 -75 -105 -75 -163 0 -62 21 -94 60 -94 27 0 193 72 375 161 137 68
186 83 242 73 101 -16 171 -76 229 -194 l32 -65 0 -175 c-1 -151 -4 -186 -23
-255 -36 -125 -85 -209 -177 -301 -71 -71 -96 -88 -215 -149 -74 -37 -174 -90
-222 -116 -48 -27 -154 -83 -235 -125 l-148 -76 -71 4 c-45 3 -86 12 -110 25
l-39 20 -3 149 -2 149 32 21 c18 11 49 26 68 33 19 8 184 87 367 177 l332 164
21 46 c22 52 27 138 8 178 -15 34 -24 31 -238 -69 -376 -176 -370 -174 -463
-155 -53 11 -69 20 -108 60 -50 51 -83 122 -101 220 -12 64 -4 219 17 341 17
96 54 211 67 203 4 -3 8 -1 8 4 0 15 91 146 134 191 59 62 144 114 371 229
110 55 229 117 265 137 105 60 270 125 310 122 34 -2 35 -3 52 -67z m-5942
-247 c30 -17 87 -47 125 -68 39 -21 133 -71 210 -112 166 -89 244 -135 245
-145 0 -4 -11 -23 -24 -43 -61 -90 -38 -247 52 -354 l29 -35 -33 -28 c-63 -56
-89 -150 -65 -236 5 -17 8 -32 7 -32 -1 0 -90 52 -197 116 -107 64 -342 202
-524 307 -181 104 -359 207 -395 227 -103 60 -215 130 -206 130 4 0 16 -5 27
-10 14 -8 30 -5 66 11 27 12 50 25 53 30 3 5 20 9 37 11 17 1 30 5 28 9 -3 3
-17 5 -32 2 -27 -3 -28 -3 -4 7 20 9 34 4 90 -27 36 -20 125 -67 196 -103 72
-37 155 -81 185 -98 l55 -32 -40 36 c-24 21 -31 31 -17 24 23 -11 23 -11 7 14
-9 13 -28 32 -42 41 -29 19 -24 32 6 15 27 -14 28 1 1 18 -15 9 -20 23 -20 54
0 76 48 99 111 52 43 -32 93 -59 85 -45 -7 11 -87 65 -153 102 -23 13 -67 42
-99 63 -32 22 -83 52 -113 68 -35 18 -45 26 -26 21 17 -4 47 -7 67 -7 32 0 35
-2 25 -15 -10 -12 -9 -13 8 -7 11 5 39 15 62 23 39 13 41 16 32 39 -6 16 -5
32 1 43 5 10 6 22 2 26 -4 5 22 -8 58 -27 36 -20 90 -49 120 -65z m4280 61
c48 -13 67 -140 30 -201 -23 -38 -31 -40 -54 -14 -18 20 -52 17 -108 -9 -23
-11 -28 -20 -28 -47 0 -36 1 -36 50 -2 31 22 75 29 75 12 0 -7 -37 -34 -83
-62 -78 -47 -82 -48 -87 -28 -4 21 -25 217 -25 237 0 10 127 114 150 122 14 5
40 3 80 -8z m-3335 -121 c369 -220 406 -246 434 -302 20 -39 25 -68 23 -143
-2 -42 -5 -47 -33 -57 -62 -22 -86 -14 -212 68 -67 43 -195 124 -285 180 -181
115 -211 147 -220 243 -6 59 9 91 51 112 29 13 34 13 86 -14 31 -15 101 -55
156 -87z m622 65 c29 -32 48 -128 33 -172 -17 -53 -61 -62 -101 -20 -20 21
-24 38 -27 98 -3 43 1 82 7 95 16 28 61 28 88 -1z m1733 -93 c19 -10 30 -24
31 -38 5 -127 -21 -186 -106 -240 -348 -221 -681 -387 -775 -387 -33 0 -97 34
-250 133 -66 43 -182 110 -257 149 -75 39 -151 85 -170 101 -49 44 -76 101
-77 169 -1 50 3 61 26 84 41 41 71 36 179 -33 115 -73 453 -266 506 -288 21
-9 65 -19 98 -21 56 -5 66 -3 150 39 50 24 164 91 255 149 339 215 333 213
390 183z m670 -50 c0 -8 -10 -58 -21 -112 -22 -101 -44 -157 -59 -151 -11 4
-100 175 -100 193 0 34 30 11 63 -47 35 -61 36 -62 45 -37 6 14 13 51 17 83 7
53 24 86 46 86 5 0 9 -7 9 -15z m-270 -132 c0 -5 5 -49 10 -100 5 -51 7 -99 4
-108 -6 -14 -34 -22 -34 -10 0 3 -5 49 -11 101 -8 72 -7 99 2 110 12 15 29 19
29 7z m-3099 -36 c-10 -9 -11 -8 -5 6 3 10 9 15 12 12 3 -3 0 -11 -7 -18z
m2967 -28 c2 -19 -4 -28 -24 -37 -22 -10 -25 -17 -21 -40 17 -83 19 -152 6
-168 -13 -16 -15 -14 -20 12 -4 16 -7 49 -8 74 -1 25 -4 55 -7 68 -6 22 -13
23 -62 4 -10 -3 -13 2 -10 18 2 16 22 36 63 61 33 21 65 36 70 35 6 -1 11 -14
13 -27z m592 -60 c-36 -17 -86 -39 -112 -49 -26 -11 -106 -49 -178 -85 -120
-60 -162 -76 -128 -47 30 24 281 144 368 176 117 43 136 45 50 5z m-3387 -30
c23 -12 121 -72 217 -133 96 -62 209 -133 251 -159 129 -79 174 -146 149 -222
-31 -95 -126 -71 -397 103 -59 38 -143 88 -185 111 -95 51 -143 105 -158 173
-9 43 -8 56 7 87 10 20 29 41 43 48 31 16 24 17 73 -8z m2599 -96 c25 -43 49
-88 53 -100 8 -28 -11 -39 -25 -13 -13 25 -51 26 -72 3 -9 -10 -19 -33 -23
-50 -10 -49 -35 -43 -35 8 0 45 40 229 50 229 3 0 27 -35 52 -77z m-1792 -10
c21 -19 19 -93 -3 -126 -24 -37 -62 -36 -81 1 -33 63 -32 137 2 145 25 6 65
-3 82 -20z m1589 -140 c0 -51 -3 -93 -8 -93 -5 0 -33 20 -62 45 -29 25 -54 43
-56 41 -3 -2 1 -32 7 -66 6 -34 9 -68 6 -76 -12 -32 -24 -9 -34 69 -14 99 -15
157 -3 157 6 0 31 -18 56 -40 25 -22 49 -40 52 -40 3 0 3 26 0 57 -5 46 -3 61
11 76 16 19 17 18 23 -9 4 -16 7 -71 8 -121z m-1250 28 c43 -27 138 -81 210
-121 134 -75 157 -92 146 -110 -10 -17 -55 -11 -94 12 l-36 21 24 -26 c14 -15
23 -29 20 -31 -9 -8 -91 -47 -140 -66 l-52 -21 -36 23 c-20 13 -75 43 -123 68
-100 52 -126 85 -135 175 -7 62 8 94 59 125 37 22 47 19 157 -49z m2291 41
c23 -11 44 -34 62 -67 24 -44 196 -464 322 -785 94 -242 215 -532 231 -557 14
-21 15 -27 4 -34 -53 -35 -142 -85 -250 -141 l-127 -66 -46 109 c-25 60 -46
114 -46 120 0 7 -11 9 -27 5 -31 -7 -352 -168 -395 -198 -34 -23 -34 -21 -13
89 9 43 24 143 35 222 12 88 25 150 34 160 8 9 58 40 111 70 111 63 108 51 49
203 -19 48 -49 131 -68 185 -18 54 -42 118 -52 142 -16 40 -18 42 -26 22 -4
-12 -17 -93 -29 -179 -11 -86 -33 -222 -49 -302 -15 -80 -34 -190 -40 -245 -7
-55 -23 -154 -36 -220 -16 -79 -24 -157 -25 -230 0 -60 -6 -150 -12 -198 l-12
-89 -179 -94 c-121 -64 -183 -91 -190 -84 -19 19 -18 125 2 245 11 66 23 145
27 175 3 30 17 127 30 215 43 286 83 559 90 610 7 56 68 418 91 539 9 44 25
98 36 120 24 49 68 109 75 103 2 -3 24 15 48 39 42 41 127 91 205 120 51 18
129 17 170 -4z m-1310 -98 c5 -13 5 -37 -1 -58 -9 -32 -7 -39 16 -63 14 -15
25 -33 25 -40 0 -25 -20 -22 -70 12 -29 19 -56 35 -61 35 -14 0 -11 -26 8 -64
13 -29 14 -38 3 -51 -28 -33 -35 -18 -50 102 -9 69 -8 88 2 94 19 13 30 11 25
-3 -14 -40 43 -65 63 -29 15 30 2 51 -32 51 -27 0 -29 2 -17 16 17 20 50 33
67 26 8 -2 17 -15 22 -28z m-4006 -4 c55 -21 85 -119 50 -168 -12 -17 -25 -22
-58 -22 -52 0 -75 22 -86 79 -11 61 11 101 67 120 1 1 13 -3 27 -9z m3763
-106 c16 -25 16 -29 0 -73 l-17 -46 35 -31 c53 -47 21 -64 -34 -18 -47 39 -67
30 -63 -30 4 -42 2 -47 -15 -44 -15 3 -20 19 -30 108 -12 116 -10 123 42 146
45 20 63 17 82 -12z m-1733 -148 c100 -57 222 -125 271 -151 125 -67 151 -88
170 -140 24 -61 15 -140 -19 -174 -23 -23 -28 -24 -64 -13 -22 7 -56 24 -77
38 -21 14 -104 60 -184 101 -293 152 -371 223 -371 337 0 51 37 106 73 106 11
0 102 -47 201 -104z m-654 -21 c69 -37 195 -109 280 -160 85 -50 232 -136 325
-190 228 -131 254 -148 260 -164 9 -22 -6 -31 -68 -41 -32 -5 -62 -12 -67 -15
-8 -5 -60 20 -255 125 -27 15 -80 46 -117 68 -38 23 -105 60 -150 83 -46 23
-102 55 -125 70 -23 16 -44 29 -47 29 -6 0 -305 177 -315 186 -2 2 -1 7 2 11
4 3 15 -1 25 -10 10 -10 23 -17 29 -17 6 0 16 -6 22 -14 7 -8 35 -19 63 -25
28 -6 63 -20 78 -31 33 -23 50 -25 50 -6 0 18 -25 38 -34 28 -4 -4 -6 -2 -5 3
7 21 -20 74 -45 90 -14 10 -24 21 -21 25 6 9 -20 21 -37 16 -7 -1 -10 -1 -6 1
4 3 -5 16 -20 29 l-27 25 40 -24 c22 -13 96 -54 165 -92z m-467 -7 c211 -118
375 -209 537 -298 261 -143 320 -176 433 -244 65 -39 114 -72 108 -74 -11 -4
-77 28 -131 64 -19 12 -120 69 -225 127 -504 276 -937 527 -911 527 4 0 89
-46 189 -102z m2625 85 c-2 -10 -23 -27 -46 -39 -76 -36 -79 -67 -5 -57 56 8
56 -11 0 -42 -62 -33 -46 -78 17 -48 20 9 39 13 43 9 13 -13 -14 -41 -68 -69
l-54 -28 -6 24 c-3 13 -10 66 -13 118 l-8 95 64 26 c77 32 80 32 76 11z m-849
-85 c6 -17 11 -48 11 -69 0 -30 -6 -42 -25 -55 -37 -24 -70 -7 -86 46 -15 50
-4 89 30 106 33 17 58 7 70 -28z m625 -23 c4 -10 -5 -22 -26 -35 l-32 -19 3
-90 c2 -61 -1 -91 -9 -96 -20 -12 -30 16 -30 89 l0 68 -36 -6 c-33 -7 -35 -6
-32 16 2 17 20 31 68 55 75 37 86 39 94 18z m-384 -55 c14 -10 23 -20 20 -22
-3 -2 -29 -18 -57 -35 -59 -36 -62 -32 -42 40 12 43 38 49 79 17z m-1835 -116
c77 -42 167 -92 200 -109 258 -136 578 -322 605 -352 15 -17 -73 30 -100 52
-8 7 -53 32 -100 56 -76 38 -365 199 -525 292 -33 19 -80 45 -105 59 -78 41
-210 120 -210 124 0 6 73 -32 235 -122z m2839 74 c62 -19 121 -85 153 -173 2
-5 -2 -1 -9 9 -81 119 -109 139 -196 144 -57 3 -79 -1 -147 -28 -97 -37 -234
-103 -286 -136 -47 -29 -71 -32 -44 -4 22 21 272 139 375 176 75 27 97 29 154
12z m-918 -131 c4 -42 8 -77 9 -77 1 0 23 9 49 21 50 22 67 19 59 -10 -6 -22
-119 -79 -132 -65 -5 5 -13 54 -19 109 -9 76 -8 101 1 107 20 12 27 -5 33 -85z
m-1641 -179 c44 -24 98 -55 120 -69 22 -14 74 -40 115 -58 41 -18 89 -41 105
-51 113 -67 145 -89 137 -94 -5 -3 -27 7 -49 23 -22 16 -50 32 -63 36 -13 4
-30 13 -37 21 -7 7 -38 22 -70 34 -51 19 -106 48 -328 173 -38 21 -103 57
-143 78 -104 55 -232 130 -232 135 0 5 319 -159 445 -228z m1461 150 c9 -18
32 -59 52 -90 29 -48 33 -60 22 -73 -17 -20 -27 -19 -33 4 -4 17 -9 18 -51 8
-41 -9 -46 -14 -52 -43 -6 -34 -29 -62 -41 -50 -15 15 58 276 77 276 5 0 17
-15 26 -32z m-1868 -18 c42 -23 104 -57 137 -76 33 -20 119 -66 190 -102 72
-36 150 -78 175 -92 25 -15 75 -40 110 -55 76 -33 99 -51 55 -41 -36 8 -219
93 -259 120 -16 11 -56 34 -90 51 -105 55 -180 98 -197 111 -8 8 -60 38 -115
69 -115 64 -120 74 -6 15z m2906 -10 c22 -5 49 -19 62 -32 12 -13 46 -81 74
-153 29 -71 82 -197 119 -280 93 -208 117 -266 222 -539 50 -131 104 -268 121
-305 50 -111 68 -169 55 -178 -39 -25 -336 -181 -358 -188 -18 -6 -65 70 -104
166 l-19 46 -44 -14 c-23 -9 -131 -59 -238 -112 -163 -81 -194 -94 -190 -77 2
12 14 86 26 166 31 211 48 292 62 306 7 7 70 43 141 80 133 70 139 78 111 124
-10 17 -13 18 -9 5 15 -44 17 -55 8 -55 -13 0 -46 71 -113 248 -32 87 -69 180
-81 207 -21 46 -22 48 -31 26 -4 -13 -13 -67 -19 -120 -15 -133 -55 -357 -83
-471 -13 -52 -27 -117 -31 -145 -3 -27 -22 -125 -40 -217 -28 -135 -32 -172
-23 -195 8 -21 8 -73 -2 -191 l-13 -162 -34 -21 c-19 -12 -87 -48 -151 -79
-65 -32 -141 -72 -171 -89 -29 -18 -56 -29 -59 -27 -3 3 0 43 7 88 6 46 25
187 41 313 17 127 39 289 50 360 11 72 24 171 30 220 6 50 28 182 49 295 22
113 51 278 66 368 31 197 64 314 111 399 37 66 68 99 39 42 -14 -28 -7 -23 37
26 43 46 77 71 150 108 135 68 160 74 232 57z m3516 -132 c0 -29 -7 -81 -16
-117 -21 -86 -113 -300 -202 -471 -94 -182 -109 -223 -92 -255 7 -14 46 -50
87 -81 149 -114 263 -264 263 -345 0 -49 -44 -107 -99 -130 -41 -17 -35 -2 7
20 49 25 82 65 82 100 0 66 -120 213 -315 386 l-68 61 96 194 c155 318 211
458 233 582 8 50 13 96 10 104 -3 9 -1 12 4 9 6 -3 10 -29 10 -57z m-180 -149
c0 -22 -125 -309 -195 -449 -89 -176 -125 -257 -125 -281 0 -11 34 -45 88 -88
100 -79 287 -275 277 -291 -8 -13 -260 -140 -277 -140 -7 0 -32 19 -57 43 -24
23 -41 34 -38 24 9 -24 -6 -15 -82 52 -35 31 -60 60 -59 70 2 9 -7 20 -20 26
-12 5 -20 16 -17 23 3 7 1 10 -5 7 -5 -3 -17 7 -27 22 -16 23 -18 50 -18 198
l1 170 48 115 c26 63 69 167 95 230 35 84 53 116 67 119 10 2 21 6 24 10 6 7
301 150 313 151 4 0 7 -5 7 -11z m-6206 -54 c11 -8 16 -15 10 -15 -5 0 -18 7
-28 15 -11 8 -16 15 -10 15 5 0 18 -7 28 -15z m166 -21 c0 -2 -13 2 -30 11
-16 9 -30 18 -30 21 0 2 14 -2 30 -11 17 -9 30 -18 30 -21z m-42 -47 c18 -11
31 -21 29 -24 -5 -4 -127 65 -127 73 0 5 28 -9 98 -49z m1711 39 c-2 -3 -34
-11 -71 -20 -66 -15 -225 -89 -356 -164 -37 -22 -133 -73 -213 -115 -249 -128
-382 -205 -447 -257 -68 -55 -78 -60 -60 -30 14 22 124 101 198 143 143 79
255 139 421 225 103 52 197 104 210 114 24 18 24 18 -17 4 -23 -8 -95 -42
-160 -77 -65 -34 -148 -77 -184 -95 -139 -68 -368 -198 -433 -246 -38 -28
-100 -89 -139 -135 -39 -45 -72 -83 -74 -83 -11 0 -54 24 -54 31 0 16 -72 30
-262 52 -15 2 -36 14 -48 28 l-21 24 6 -25 c5 -22 4 -23 -5 -7 -35 55 146 202
395 321 135 65 187 87 179 75 -4 -8 0 -9 16 -4 17 5 21 4 15 -6 -5 -7 8 0 28
15 20 15 40 25 45 23 4 -3 14 -1 22 5 13 8 12 9 -1 5 -9 -3 -22 0 -28 6 -8 8
-3 16 17 29 33 22 43 23 36 3 -4 -10 0 -15 11 -15 10 0 13 5 9 12 -5 8 -1 9
12 5 18 -7 18 -7 0 8 -25 19 -6 20 20 1 14 -10 23 -11 32 -4 7 6 35 15 63 19
27 4 64 15 82 24 39 20 157 57 252 79 83 19 300 23 289 5 -4 -7 0 -9 14 -5 68
22 214 45 201 32z m-1879 -37 l25 -20 -32 16 c-18 8 -33 18 -33 20 0 10 16 4
40 -16z m814 -10 c20 -19 -1 -17 -29 2 -28 19 -28 20 -5 14 14 -4 29 -11 34
-16z m-449 -107 c129 -77 120 -71 113 -78 -9 -8 -60 20 -163 89 -156 104 -137
99 50 -11z m-254 57 c23 -11 39 -22 36 -25 -2 -2 -24 7 -48 21 -53 30 -44 33
12 4z m332 -27 c20 -14 37 -26 37 -29 0 -5 -72 33 -95 51 l-20 16 20 -7 c11
-4 37 -18 58 -31z m532 -2 c-3 -5 -14 -10 -23 -10 -15 0 -15 2 -2 10 20 13 33
13 25 0z m-664 -87 c111 -67 104 -62 97 -68 -5 -5 -172 95 -192 116 -21 20 6
7 95 -48z m214 37 c3 -6 -1 -7 -9 -4 -18 7 -21 14 -7 14 6 0 13 -4 16 -10z
m1380 -199 l0 -193 -27 -19 c-15 -11 -52 -31 -82 -44 -172 -76 -686 -341 -714
-368 -33 -32 -62 -105 -62 -157 0 -15 10 -40 22 -55 18 -23 27 -26 59 -22 21
3 152 60 291 127 139 67 267 124 285 127 42 7 147 -13 193 -37 84 -43 144
-143 162 -269 9 -61 9 -118 0 -238 -16 -215 -40 -294 -135 -431 -102 -149
-121 -161 -677 -441 -261 -131 -291 -144 -351 -148 -74 -6 -124 12 -139 51 -4
13 -16 83 -25 156 -9 73 -18 137 -21 142 -3 4 7 13 23 19 15 5 114 52 218 103
105 52 280 138 390 192 246 120 269 135 289 185 18 45 21 144 6 185 -9 23 -15
26 -43 21 -18 -3 -146 -61 -285 -130 -279 -139 -333 -157 -409 -138 -127 32
-191 110 -256 311 -6 20 -11 101 -11 185 0 127 3 163 23 235 28 100 67 193 79
187 4 -3 26 20 49 51 82 112 125 146 312 243 175 91 402 212 557 295 88 48
177 74 239 71 l40 -2 0 -194z m-1115 161 c0 -5 -7 -9 -15 -9 -8 0 -12 4 -9 9
3 4 9 8 15 8 5 0 9 -4 9 -8z m4837 -88 c1 -49 7 -224 12 -389 6 -165 12 -383
13 -484 l3 -184 -129 -64 c-70 -35 -130 -63 -131 -61 -2 2 -8 79 -13 172 -6
92 -13 171 -16 174 -10 9 -7 -128 6 -241 8 -75 8 -111 1 -118 -8 -8 -11 -1
-11 23 1 18 -4 121 -11 228 -6 107 -12 355 -14 551 l-3 355 81 32 c44 18 105
47 135 66 30 19 60 33 65 32 6 -2 11 -42 12 -92z m-5337 20 c0 -2 -13 2 -30
11 -16 9 -30 18 -30 21 0 2 14 -2 30 -11 17 -9 30 -18 30 -21z m4883 -257 c48
-21 54 -34 62 -132 l7 -90 -69 -30 c-102 -44 -412 -203 -461 -237 -68 -47 -76
-74 -76 -278 -1 -192 3 -219 35 -238 19 -12 31 -9 108 28 230 114 351 175 409
207 35 19 65 34 67 32 4 -4 -8 -82 -26 -169 -27 -129 -91 -204 -242 -281 -56
-28 -131 -69 -167 -89 -68 -40 -184 -80 -229 -80 -58 0 -101 21 -131 62 -31
43 -42 45 -14 3 9 -14 12 -25 7 -25 -18 0 -52 45 -80 105 -27 57 -28 68 -31
230 -2 94 1 212 7 261 11 105 58 238 100 287 15 18 46 60 69 94 62 92 120 132
407 282 33 17 76 40 95 51 40 23 106 26 153 7z m780 -591 c4 -10 1 -13 -8 -9
-8 3 -12 9 -9 14 7 12 11 11 17 -5z m-1982 -45 c15 -16 44 -78 69 -147 23 -65
71 -191 106 -279 34 -88 77 -198 94 -244 17 -47 47 -116 67 -153 20 -38 34
-70 32 -71 -30 -22 -255 -147 -264 -147 -5 0 -33 89 -46 148 -6 28 -13 52 -16
52 -6 0 -153 -82 -236 -131 -76 -45 -74 -48 -52 86 8 50 15 104 15 122 0 35
26 61 108 105 l50 27 -35 93 c-19 51 -43 118 -55 148 -11 30 -22 57 -24 59 -2
2 -14 -4 -28 -12 -18 -13 -26 -29 -31 -64 -16 -118 -38 -258 -62 -378 -14 -73
-29 -198 -34 -285 -13 -232 0 -206 -138 -278 -66 -34 -128 -62 -139 -62 -19 0
-19 2 -5 43 22 61 42 157 42 197 -1 22 -6 7 -14 -40 -17 -90 -36 -162 -42
-156 -3 3 7 87 21 188 14 101 35 266 46 368 21 196 63 463 81 517 5 17 22 48
37 67 15 19 39 55 54 78 22 36 46 54 141 105 167 90 207 97 258 44z m-3566
-197 l-6 -41 -30 28 c-17 16 -36 29 -41 29 -6 0 -26 14 -45 30 -18 17 -37 30
-41 30 -4 0 -9 13 -10 30 -2 24 2 31 23 36 14 3 25 11 25 16 0 6 7 7 16 4 8
-3 12 -2 9 4 -7 11 34 29 71 32 13 1 25 7 26 13 5 27 8 -175 3 -211z m5848
-80 c8 -119 4 -154 -17 -154 -19 0 -26 22 -27 88 l-1 57 -24 -55 c-13 -30 -30
-68 -37 -84 l-13 -29 -34 46 c-18 26 -37 47 -41 47 -4 0 -4 -38 -1 -85 4 -73
3 -85 -12 -91 -9 -4 -18 -5 -20 -3 -2 2 -7 64 -11 136 -7 122 -6 133 11 140
13 5 28 -5 59 -41 l42 -47 17 26 c10 15 26 52 37 82 41 119 62 109 72 -33z
m166 -49 c0 -38 -3 -88 -7 -110 -5 -24 -8 23 -8 120 -1 107 2 144 7 110 4 -27
7 -81 8 -120z m-3179 -117 c0 -79 3 -152 6 -164 5 -18 -12 -30 -148 -97 l-153
-75 3 -431 4 -430 -121 -61 c-67 -33 -124 -61 -127 -63 -4 -1 -6 81 -6 183 0
102 -3 257 -7 345 l-8 160 -3 -240 -3 -240 -10 300 c-5 165 -10 301 -11 302
-5 5 -292 -120 -318 -138 -16 -12 -31 -20 -32 -18 -5 6 -29 290 -25 293 2 1
103 54 224 116 323 166 622 329 685 374 19 14 38 25 43 26 4 0 7 -64 7 -142z
m2672 55 c34 -33 35 -44 3 -91 l-25 -36 25 -26 c56 -58 14 -89 -47 -35 -21 20
-43 33 -48 30 -6 -4 -10 -31 -10 -61 0 -40 -4 -56 -15 -61 -9 -3 -18 -4 -20
-2 -2 3 -7 61 -11 129 -7 140 -8 139 62 164 53 20 54 20 86 -11z m-272 -128
c58 -30 65 -81 23 -164 -27 -53 -90 -111 -120 -111 -29 0 -73 57 -73 92 0 77
50 166 105 189 28 11 33 11 65 -6z m-250 -119 c0 -18 -11 -31 -44 -50 -42 -24
-66 -59 -52 -74 4 -3 27 5 51 18 24 13 47 22 50 18 14 -13 -20 -58 -51 -68
-33 -11 -34 -12 -34 -71 0 -51 -3 -59 -19 -59 -16 0 -19 11 -24 83 -12 154
-14 150 46 190 62 43 77 45 77 13z m-231 -157 c-22 -16 -22 -19 -12 -105 8
-69 7 -92 -2 -103 -22 -23 -35 -3 -35 52 0 87 -10 129 -29 121 -44 -18 -51
-17 -51 8 0 20 11 30 60 53 34 16 66 36 73 44 10 12 13 9 15 -19 3 -26 -2 -38
-19 -51z m-200 -106 c16 -32 41 -75 55 -96 29 -42 33 -78 12 -96 -11 -9 -15
-6 -20 14 -9 36 -30 41 -70 16 -24 -15 -39 -35 -48 -63 -8 -23 -20 -44 -26
-46 -19 -6 -14 54 12 153 14 50 30 109 36 133 6 23 13 42 15 42 3 0 18 -26 34
-57z m-2778 -63 c-6 -28 -11 -93 -11 -145 l0 -95 -62 -31 c-81 -41 -359 -194
-419 -231 -56 -34 -78 -76 -60 -115 10 -22 16 -25 47 -20 20 3 115 44 213 91
182 88 224 100 284 77 68 -26 106 -105 107 -218 0 -261 -104 -422 -360 -552
-69 -35 -161 -85 -205 -111 -106 -64 -249 -122 -289 -118 l-31 3 -6 95 c-3 52
-9 107 -13 121 -7 23 -4 28 23 37 16 6 57 29 89 51 33 22 151 86 262 142 111
56 211 110 221 120 19 19 24 68 11 101 -6 14 -27 7 -149 -52 -174 -83 -293
-125 -335 -116 -53 11 -114 69 -139 134 -39 100 -23 282 32 382 11 19 18 27
15 18 -9 -29 1 -21 27 25 68 114 162 180 518 359 201 101 233 115 237 106 2
-5 -1 -31 -7 -58z m1862 -60 l6 -45 -19 55 c-10 30 -19 64 -19 75 1 33 26 -33
32 -85z m-3512 36 c-15 -18 -41 -139 -41 -193 0 -47 -7 -51 -48 -26 -38 24
-62 50 -62 67 0 8 -4 18 -10 21 -5 3 -10 15 -10 26 0 11 5 17 10 14 6 -3 10 0
10 8 0 8 11 17 23 21 13 3 29 16 35 28 6 13 11 17 11 11 1 -7 6 -13 12 -13 6
0 8 8 5 18 -5 14 -4 14 9 -2 8 -11 15 -14 15 -7 0 7 5 9 12 5 7 -5 8 -3 3 6
-4 7 -2 16 6 21 21 13 33 11 20 -5z m-456 -76 l-13 -55 -1 47 c-1 26 3 49 9
53 5 3 7 13 4 23 -5 14 -4 15 4 2 7 -10 6 -33 -3 -70z m4576 25 c1 -14 3 -29
4 -35 1 -5 3 -39 4 -75 l1 -65 59 29 c32 17 61 27 65 24 17 -18 2 -43 -41 -68
-27 -15 -63 -39 -81 -52 -40 -30 -39 -32 -47 120 -4 84 -3 123 6 133 17 21 29
17 30 -11z m-127 -77 c21 -29 20 -83 0 -117 -9 -16 -39 -42 -65 -60 -47 -31
-49 -34 -47 -74 2 -31 -1 -42 -13 -45 -21 -4 -29 41 -29 160 l0 87 53 35 c62
41 81 44 101 14z m-371 -185 c-10 -29 -25 -43 -65 -64 -29 -15 -38 -26 -38
-44 0 -29 -2 -29 43 -10 72 30 80 5 12 -38 -33 -21 -45 -35 -45 -53 0 -29 1
-29 51 -3 44 22 69 20 69 -6 0 -10 -24 -27 -60 -44 -33 -16 -67 -34 -75 -41
-29 -24 -36 3 -33 125 l3 119 65 38 c74 43 82 45 73 21z m-223 -123 c0 -32
-46 -234 -59 -260 -19 -36 -38 -20 -80 67 -44 90 -56 142 -34 150 8 3 27 -26
48 -73 19 -42 37 -75 40 -73 2 3 15 49 29 103 14 54 28 102 32 107 11 19 24 8
24 -21z m-643 -102 c-3 -8 -6 -5 -6 6 -1 11 2 17 5 13 3 -3 4 -12 1 -19z m382
-165 c1 -90 -2 -113 -13 -113 -19 0 -26 45 -26 160 0 70 4 100 13 103 19 6 25
-28 26 -150z m-109 77 c9 -17 6 -21 -24 -34 l-34 -14 -4 -106 c-2 -68 -7 -110
-16 -118 -24 -24 -33 12 -26 106 7 85 6 89 -12 81 -10 -4 -32 -10 -47 -13 -24
-4 -28 -1 -25 14 2 11 34 34 83 60 44 23 83 42 87 43 4 0 12 -8 18 -19z m1540
-25 c0 -18 -11 -32 -40 -51 -22 -15 -40 -33 -40 -42 0 -11 8 -13 40 -8 31 5
40 3 40 -8 0 -8 -18 -25 -40 -37 -47 -26 -58 -65 -14 -49 14 6 34 15 45 20 17
9 19 7 19 -18 0 -26 -7 -32 -62 -55 -47 -21 -64 -24 -70 -15 -4 7 -7 60 -7
118 l0 105 62 32 c34 17 63 31 65 32 1 1 2 -10 2 -24z m-2413 -42 c-3 -10 -5
-4 -5 12 0 17 2 24 5 18 2 -7 2 -21 0 -30z m631 -127 c50 -103 57 -128 42
-157 -12 -22 -12 -22 -26 9 -15 36 -19 37 -53 18 -14 -8 -30 -12 -37 -9 -8 3
-19 -17 -31 -53 -31 -98 -59 -71 -32 31 20 75 82 245 89 245 4 0 26 -38 48
-84z m1576 52 c-23 -134 -76 -267 -97 -249 -22 18 -90 168 -84 185 11 29 32
17 57 -36 14 -28 29 -52 34 -52 6 -1 19 35 30 79 23 90 31 105 51 105 11 0 13
-8 9 -32z m-1811 -155 c9 -86 9 -167 1 -187 -10 -26 -32 -19 -95 34 -33 28
-62 50 -65 50 -3 0 -2 -35 1 -77 5 -61 3 -82 -8 -98 -9 -11 -18 -18 -20 -15
-9 8 -11 256 -3 268 9 15 26 6 90 -43 25 -19 48 -35 51 -35 3 0 5 36 5 79 0
75 4 87 31 90 3 1 9 -29 12 -66z m1561 11 c3 -26 6 -80 6 -121 0 -57 -3 -75
-15 -80 -9 -3 -18 -4 -20 -1 -2 2 -7 52 -11 111 -5 80 -4 110 6 122 20 24 27
18 34 -31z m-110 -20 c11 -30 6 -42 -25 -54 -19 -8 -28 -18 -25 -27 12 -29 16
-139 7 -153 -16 -23 -20 -10 -22 77 l-3 82 -35 -2 c-54 -3 -46 22 19 59 64 37
76 40 84 18z m-190 -135 c9 -27 27 -64 41 -80 30 -36 32 -55 6 -68 -14 -8 -22
-7 -31 4 -20 25 -36 18 -83 -37 -25 -29 -49 -49 -53 -45 -4 4 6 49 23 100 17
50 36 111 43 135 15 57 36 54 54 -9z m-1547 -15 c15 -24 15 -27 -16 -70 l-32
-45 26 -30 c46 -55 21 -79 -40 -39 -55 36 -81 19 -69 -44 4 -23 1 -36 -11 -46
-27 -22 -34 3 -37 118 -1 56 -2 110 -2 120 -1 11 20 27 64 49 70 34 87 33 117
-13z m1362 -171 c1 -49 -3 -73 -10 -73 -7 0 -34 14 -62 31 l-50 31 6 -52 c5
-40 3 -52 -9 -57 -8 -3 -16 -4 -18 -2 -2 2 -7 52 -10 112 -8 124 -6 127 63 72
24 -19 48 -35 52 -35 11 0 11 -3 -6 45 -20 56 -18 74 8 84 20 8 22 5 29 -38 3
-25 7 -79 7 -118z m-1639 78 c0 -26 -7 -34 -52 -58 -37 -19 -54 -35 -56 -51
l-3 -22 53 20 c64 24 58 24 58 0 0 -14 -14 -27 -47 -42 -41 -20 -48 -28 -51
-55 -2 -18 -1 -33 1 -33 3 0 25 11 48 25 55 31 69 31 69 0 0 -19 -10 -30 -47
-49 -27 -14 -62 -35 -79 -46 l-32 -21 -7 138 c-4 78 -4 138 1 140 5 2 38 21
74 43 36 21 66 39 68 40 1 0 2 -13 2 -29z m1418 -153 c1 -57 -2 -99 -8 -103
-6 -4 -10 7 -10 24 0 24 -4 31 -20 31 -24 0 -26 25 -5 46 12 13 11 19 -6 49
-24 40 -18 57 19 53 27 -3 27 -3 30 -100z m-1648 38 c0 -8 2 -21 5 -28 4 -10
-7 -20 -35 -31 l-40 -15 0 -109 c0 -103 -7 -133 -32 -133 -4 0 -9 44 -10 98
-3 103 -3 102 -54 87 -15 -5 -23 -1 -28 10 -9 25 7 40 88 81 39 20 75 40 81
45 14 13 25 11 25 -5z m1544 -4 c3 -5 -26 -23 -65 -42 -67 -32 -69 -34 -52
-52 9 -10 19 -14 22 -10 3 5 17 12 31 16 l25 7 -25 -20 c-14 -12 -31 -26 -38
-32 -7 -6 -19 -8 -27 -5 -7 2 -16 0 -18 -7 -3 -8 -11 -6 -25 7 -16 14 -31 17
-61 13 -70 -9 -67 8 10 48 74 38 185 84 206 85 6 0 14 -4 17 -8z m-34 -122
c-27 -21 -40 -25 -40 -12 0 9 53 40 60 35 3 -3 -6 -13 -20 -23z m-54 -37 c-10
-10 -19 5 -10 18 6 11 8 11 12 0 2 -7 1 -15 -2 -18z m84 -13 c-11 -21 -90 -66
-90 -51 0 11 21 29 63 52 41 23 40 23 27 -1z m-390 -65 c0 -82 8 -90 60 -60
33 19 40 18 40 -4 0 -21 -53 -72 -100 -96 -37 -19 -37 -22 -44 117 -6 108 -4
115 32 117 8 1 12 -20 12 -74z m200 31 c0 -49 -7 -76 -21 -76 -5 0 -9 27 -9
60 0 47 3 60 15 60 11 0 15 -12 15 -44z m-1697 -78 l-6 -102 44 26 c24 14 54
29 67 33 21 6 22 4 16 -22 -4 -15 -11 -29 -15 -31 -4 -2 -35 -21 -69 -43 -33
-21 -65 -39 -70 -39 -11 0 -14 263 -3 273 3 4 15 7 25 7 17 0 18 -7 11 -102z
m1317 2 c12 -16 35 -59 51 -96 24 -53 28 -69 18 -81 -11 -13 -15 -12 -29 7
-14 18 -23 21 -49 15 -25 -5 -37 -16 -53 -50 -12 -24 -32 -48 -45 -54 -12 -6
-23 -9 -23 -6 0 2 11 48 25 102 14 54 25 104 25 111 0 27 30 82 44 82 8 0 24
-13 36 -30z m-1490 -102 c43 -89 48 -119 24 -138 -13 -11 -16 -10 -21 8 -6 26
-18 27 -66 7 -28 -11 -38 -24 -49 -57 -9 -26 -22 -44 -32 -46 -22 -5 -19 12
26 168 50 171 61 176 118 58z" />
        <path d="M6765 7850 c3 -5 8 -10 11 -10 2 0 4 5 4 10 0 6 -5 10 -11 10 -5 0
-7 -4 -4 -10z" />
        <path d="M6770 7810 c0 -5 5 -10 10 -10 6 0 10 5 10 10 0 6 -4 10 -10 10 -5 0
-10 -4 -10 -10z" />
        <path d="M7200 7670 c-9 -6 -10 -10 -3 -10 6 0 15 5 18 10 8 12 4 12 -15 0z" />
        <path d="M7000 7299 c0 -5 5 -7 10 -4 6 3 10 8 10 11 0 2 -4 4 -10 4 -5 0 -10
-5 -10 -11z" />
        <path d="M6966 7275 c-11 -8 -15 -15 -9 -15 6 0 16 7 23 15 16 19 11 19 -14 0z" />
        <path d="M4821 8806 c2 -2 33 -6 69 -9 41 -4 56 -3 40 3 -25 8 -117 14 -109 6z" />
        <path d="M4762 8775 c-72 -16 -171 -63 -317 -152 -119 -72 -370 -222 -465
-278 -238 -140 -409 -247 -432 -272 -31 -33 -48 -72 -48 -113 0 -35 18 -50
195 -156 72 -43 204 -123 295 -179 670 -414 727 -445 840 -445 90 0 259 69
403 165 38 24 94 59 125 76 63 34 234 138 382 232 52 33 147 92 210 130 223
134 258 173 218 245 -20 37 -22 46 -8 37 6 -3 7 1 3 10 -4 12 -8 13 -13 5 -6
-9 -18 -5 -44 15 -19 15 -34 31 -33 36 1 5 -14 19 -33 30 -19 12 -27 14 -17 6
9 -8 17 -17 17 -20 0 -12 -125 56 -311 169 -168 102 -464 278 -509 303 -8 5
-42 25 -75 44 -121 71 -182 99 -245 112 -36 8 -67 14 -70 14 -3 0 -34 -7 -68
-14z m145 -351 c42 -14 327 -168 423 -229 20 -13 63 -37 97 -54 73 -37 143
-100 143 -129 0 -11 5 -24 10 -27 17 -10 4 42 -20 80 -12 19 -25 35 -30 35 -4
0 -10 6 -13 13 -3 9 15 12 70 12 57 0 77 4 86 16 24 32 60 31 114 -6 43 -29
55 -44 73 -92 21 -57 21 -59 5 -113 -32 -103 -55 -130 -177 -209 -62 -39 -189
-117 -283 -172 -93 -56 -184 -111 -200 -124 -49 -37 -206 -111 -265 -126 -30
-7 -90 -13 -133 -12 -104 1 -101 -1 -572 285 -287 174 -383 247 -411 315 -20
47 -17 57 10 35 20 -16 43 -19 131 -21 73 -1 112 2 123 11 10 7 14 9 11 5 -11
-13 115 -126 127 -114 3 2 -7 12 -21 21 -40 26 -85 77 -91 103 -12 46 3 107
33 133 32 28 140 97 245 154 37 20 89 53 115 73 59 45 174 114 228 136 52 21
112 21 172 1z" />
        <path d="M4750 8323 c-25 -10 -304 -188 -364 -232 -71 -52 -99 -95 -90 -136 3
-16 11 -36 17 -44 23 -28 350 -239 439 -283 84 -41 176 -17 315 83 34 24 94
64 134 89 92 58 169 129 169 158 0 40 -23 72 -92 128 -151 122 -388 245 -469
243 -24 0 -51 -3 -59 -6z m128 -189 c118 -49 222 -138 222 -191 0 -28 -55 -76
-130 -114 -91 -46 -143 -46 -240 3 -141 70 -183 127 -128 174 17 14 20 15 9 2
-24 -32 -4 -41 78 -34 42 4 109 12 149 18 56 9 84 9 125 -1 28 -6 64 -13 78
-15 45 -6 24 28 -51 79 -73 50 -128 74 -175 75 -23 0 -27 3 -15 10 21 13 35
12 78 -6z" />
        <path d="M4967 8779 c7 -7 15 -10 18 -7 3 3 -2 9 -12 12 -14 6 -15 5 -6 -5z" />
        <path d="M5008 8757 c13 -15 86 -57 100 -57 9 0 -42 35 -83 57 -27 15 -29 15
-17 0z" />
        <path d="M5360 8555 c14 -8 30 -14 35 -14 6 0 -1 6 -15 14 -14 8 -29 14 -35
14 -5 0 1 -6 15 -14z" />
        <path d="M5637 8389 c7 -7 15 -10 18 -7 3 3 -2 9 -12 12 -14 6 -15 5 -6 -5z" />
        <path d="M5810 8286 c0 -2 7 -7 16 -10 8 -3 12 -2 9 4 -6 10 -25 14 -25 6z" />
        <path d="M6027 7531 c-40 -26 -47 -36 -12 -18 42 23 62 37 50 36 -5 0 -22 -8
-38 -18z" />
        <path d="M5954 7484 c-18 -14 -18 -15 4 -4 12 6 22 13 22 15 0 8 -5 6 -26 -11z" />
        <path d="M5623 7289 c-18 -12 -33 -23 -33 -25 0 -5 44 18 70 35 29 20 -5 10
-37 -10z" />
        <path d="M5465 7191 c-16 -10 -91 -55 -165 -100 -135 -82 -200 -129 -105 -75
60 33 286 174 300 186 16 14 1 9 -30 -11z" />
        <path d="M6113 9083 c-15 -6 -17 -49 -3 -58 33 -20 65 26 38 53 -13 13 -16 13
-35 5z" />
        <path d="M8014 8040 c-62 -31 -84 -99 -44 -135 11 -10 43 -20 76 -24 l56 -6
-26 -29 c-28 -29 -32 -29 -108 -10 -25 6 -28 4 -28 -19 0 -34 54 -80 84 -71
77 24 146 85 146 130 0 29 -30 50 -87 59 -53 8 -73 29 -43 45 11 6 25 8 31 5
15 -10 55 2 74 21 15 15 15 18 -1 35 -23 25 -78 25 -130 -1z" />
        <path d="M7467 7764 c-10 -10 -8 -56 3 -74 14 -23 32 2 28 40 -3 33 -17 48
-31 34z" />
        <path d="M3200 7526 c0 -3 9 -10 20 -16 11 -6 20 -8 20 -6 0 3 -9 10 -20 16
-11 6 -20 8 -20 6z" />
        <path d="M3280 7476 c0 -3 9 -10 20 -16 11 -6 20 -8 20 -6 0 3 -9 10 -20 16
-11 6 -20 8 -20 6z" />
        <path d="M3471 7367 c19 -12 47 -28 62 -35 15 -6 30 -19 33 -27 4 -8 12 -15
19 -15 8 0 28 -15 46 -32 22 -22 29 -26 21 -11 -15 27 -72 72 -143 112 -65 36
-87 41 -38 8z" />
        <path d="M1620 6870 c-8 -5 -10 -10 -5 -10 6 0 17 5 25 10 8 5 11 10 5 10 -5
0 -17 -5 -25 -10z" />
        <path d="M3240 7035 c30 -19 58 -35 63 -35 4 0 5 -5 1 -12 -5 -7 -3 -8 6 -3
10 6 12 4 7 -8 -3 -10 -2 -17 3 -17 6 0 10 -7 10 -15 0 -8 5 -15 10 -15 6 0
10 7 10 16 0 8 5 12 11 9 6 -4 8 -13 5 -21 -6 -16 10 -19 19 -4 10 17 64 -17
60 -37 -2 -10 -4 -26 -4 -36 -1 -14 -6 -17 -21 -12 -15 5 -20 2 -20 -13 0 -11
7 -23 16 -26 12 -5 14 -9 5 -20 -9 -10 -5 -19 14 -38 35 -35 63 -41 76 -16 6
10 16 17 22 15 15 -5 47 10 47 23 0 13 -41 50 -50 45 -3 -2 -6 9 -6 25 0 25 2
27 18 19 22 -12 24 -21 3 -13 -8 4 -15 2 -15 -4 0 -14 25 -22 40 -12 16 10 33
3 25 -10 -3 -5 -13 -6 -22 -3 -11 4 -14 3 -9 -6 4 -6 16 -9 25 -6 10 3 30 -4
46 -17 25 -19 26 -19 17 -2 -19 35 -57 63 -167 125 -256 143 -285 159 -292
159 -4 0 17 -16 47 -35z m250 -223 c-6 -2 -10 -10 -10 -18 0 -8 -7 -14 -16
-14 -13 0 -13 4 2 30 13 20 20 26 26 17 4 -6 3 -13 -2 -15z m20 -42 c0 -5 -4
-10 -10 -10 -5 0 -10 5 -10 10 0 6 5 10 10 10 6 0 10 -4 10 -10z m-32 -12 c19
-19 14 -29 -8 -16 -20 13 -27 28 -12 28 4 0 13 -5 20 -12z" />
        <path d="M3362 6894 c-32 -36 -33 -39 -4 -25 9 5 32 15 51 23 l33 14 -25 11
c-22 10 -28 8 -55 -23z m43 6 c-27 -12 -43 -12 -25 0 8 5 22 9 30 9 10 0 8 -3
-5 -9z" />
        <path d="M3350 6841 c0 -6 4 -13 10 -16 6 -3 7 1 4 9 -7 18 -14 21 -14 7z" />
        <path d="M3305 6820 c3 -5 8 -10 11 -10 2 0 4 5 4 10 0 6 -5 10 -11 10 -5 0
-7 -4 -4 -10z" />
        <path d="M3390 6790 c-13 -8 -13 -12 3 -27 10 -11 17 -13 17 -5 0 7 -6 12 -12
12 -9 0 -8 3 2 10 8 5 12 11 9 14 -2 3 -11 1 -19 -4z" />
        <path d="M5580 7030 c-12 -8 -10 -10 8 -10 13 0 20 4 17 10 -7 12 -6 12 -25 0z" />
        <path d="M4067 7013 c-9 -9 -7 -82 3 -113 7 -22 8 -22 9 -4 1 15 7 20 24 18
12 -1 22 -3 22 -4 0 -1 10 -3 23 -6 13 -2 30 3 38 11 18 17 49 21 38 4 -4 -8
1 -9 16 -4 17 5 21 4 15 -5 -5 -9 -4 -11 4 -6 6 4 32 -5 58 -19 25 -15 43 -22
39 -16 -4 6 -37 27 -74 47 -37 20 -91 52 -119 70 -51 33 -82 42 -96 27z" />
        <path d="M4142 6866 c7 -8 15 -12 17 -11 5 6 -10 25 -20 25 -5 0 -4 -6 3 -14z" />
        <path d="M3083 6670 c16 -5 44 -21 63 -35 19 -15 41 -28 49 -29 8 -1 22 -10
33 -19 10 -9 24 -17 30 -17 14 0 31 -31 25 -48 -3 -8 1 -10 11 -6 9 3 16 10
16 15 0 10 43 -10 75 -35 19 -15 19 -16 1 -9 -13 4 -17 3 -12 -5 3 -6 2 -13
-4 -17 -5 -3 -10 0 -10 8 0 19 -23 28 -41 16 -23 -14 -32 -10 -15 7 10 10 24
13 38 9 18 -5 20 -4 8 4 -22 15 -34 13 -59 -10 -14 -13 -20 -27 -16 -40 4 -11
2 -19 -5 -19 -7 0 -6 -5 2 -14 7 -8 16 -12 19 -10 4 2 9 -5 12 -16 4 -17 3
-18 -16 -8 -20 10 -21 10 -8 -5 7 -10 23 -17 34 -17 11 0 17 -3 14 -6 -13 -13
78 -68 96 -58 7 4 9 4 5 -1 -8 -8 131 -99 139 -91 3 2 -10 13 -29 22 -27 15
-30 19 -14 22 10 2 22 -1 26 -7 5 -8 13 -7 28 6 24 20 21 63 -5 63 -8 0 -11 5
-8 10 4 6 12 7 18 3 19 -12 37 -12 37 -2 0 6 5 7 10 4 6 -4 7 -11 4 -17 -4 -6
-2 -8 4 -4 15 9 6 45 -15 65 -10 10 -63 41 -118 71 -55 29 -125 67 -155 85
-147 86 -260 145 -277 144 -11 0 -8 -4 10 -9z m517 -311 c0 -8 5 -7 15 1 13
11 14 10 9 -4 -8 -20 -18 -20 -34 -1 -9 10 -9 15 -1 15 6 0 11 -5 11 -11z" />
        <path d="M4066 6544 c-3 -9 -6 -40 -6 -70 0 -49 4 -59 34 -89 18 -19 38 -35
45 -35 6 0 11 -5 11 -12 0 -6 3 -8 7 -5 3 4 11 0 18 -9 10 -14 14 -13 31 12
10 16 22 38 25 49 3 11 12 19 19 17 7 -2 20 4 30 13 16 15 21 15 56 0 57 -23
39 -11 -101 71 -131 76 -158 86 -169 58z m212 -103 c10 -6 10 -11 -3 -21 -14
-12 -18 -11 -25 0 -15 24 2 38 28 21z" />
        <path d="M4200 6305 c0 -7 30 -13 34 -7 3 4 -4 9 -15 9 -10 1 -19 0 -19 -2z" />
        <path d="M7101 5220 c0 -8 4 -22 9 -30 12 -18 12 -2 0 25 -6 13 -9 15 -9 5z" />
        <path d="M7140 5133 c0 -6 8 -17 18 -24 16 -13 16 -13 2 6 -8 11 -16 22 -17
24 -2 2 -3 0 -3 -6z" />
        <path d="M2170 6246 c6 -6 18 -5 32 1 21 10 21 10 -9 9 -19 -1 -28 -5 -23 -10z" />
        <path d="M6486 6240 c-46 -18 -90 -49 -82 -57 2 -2 32 10 65 27 34 17 66 28
71 25 19 -12 -14 -55 -56 -72 -40 -16 -62 -39 -50 -51 3 -2 27 2 55 9 42 10
52 10 67 -2 16 -13 17 -10 12 39 -3 28 -1 52 4 52 5 0 1 11 -8 25 -19 29 -16
29 -78 5z" />
        <path d="M3068 6213 c6 -2 18 -2 25 0 6 3 1 5 -13 5 -14 0 -19 -2 -12 -5z" />
        <path d="M3123 6187 c0 -7 9 -13 19 -13 10 0 18 1 18 3 0 1 -8 7 -18 12 -13 7
-19 6 -19 -2z" />
        <path d="M3221 6134 c19 -14 40 -29 47 -33 7 -4 16 -27 18 -51 3 -24 8 -48 10
-52 3 -4 1 -8 -4 -8 -16 0 -9 -31 14 -55 20 -21 20 -25 6 -25 -13 0 -9 -7 13
-25 17 -13 36 -24 43 -25 7 0 15 -7 18 -15 4 -8 12 -15 19 -15 7 0 15 -6 18
-13 3 -8 27 -24 54 -37 26 -12 52 -29 56 -37 5 -9 16 -11 29 -7 15 4 18 3 13
-6 -5 -9 -4 -11 4 -6 6 4 9 11 6 15 -2 5 4 16 15 26 13 11 18 25 14 37 -3 10
-1 18 5 18 6 0 11 7 11 16 0 8 5 12 11 8 8 -4 8 -9 0 -17 -6 -6 -11 -15 -11
-19 0 -15 15 -8 28 12 22 36 -16 71 -190 175 -90 54 -187 113 -216 131 -62 40
-80 45 -31 8z m344 -384 c-3 -5 -11 -10 -16 -10 -6 0 -7 5 -4 10 3 6 11 10 16
10 6 0 7 -4 4 -10z" />
        <path d="M4071 6074 c-10 -13 -17 -32 -16 -42 2 -9 7 -34 10 -55 7 -44 67
-117 96 -117 11 0 22 -7 26 -16 3 -9 12 -13 21 -9 8 3 19 0 24 -7 6 -10 8 -10
8 2 0 13 1 13 11 0 8 -11 12 -12 16 -2 2 6 10 12 17 12 7 0 18 6 25 13 12 12
16 13 46 16 23 2 18 21 -6 21 -17 0 -19 3 -10 14 10 12 20 11 64 -5 42 -16 48
-16 32 -3 -11 8 -38 25 -59 36 -22 11 -84 49 -139 85 -131 85 -141 89 -166 57z" />
        <path d="M5560 6096 c0 -2 11 -6 25 -8 14 -3 25 -1 25 3 0 5 -11 9 -25 9 -14
0 -25 -2 -25 -4z" />
        <path d="M3168 5701 c12 -10 22 -24 22 -30 0 -6 5 -11 11 -11 5 0 8 -4 4 -9
-3 -5 7 -19 22 -32 16 -12 21 -20 13 -17 -13 5 -15 -4 -14 -46 2 -69 2 -69 19
-63 8 4 17 2 20 -4 4 -5 11 -6 17 -3 6 4 9 1 6 -7 -5 -14 31 -49 50 -49 6 0
12 -4 14 -9 6 -18 129 -92 140 -85 6 4 8 3 4 -4 -3 -6 9 -15 31 -22 21 -7 47
-20 57 -29 11 -9 16 -10 12 -3 -5 8 -1 12 12 12 11 0 25 7 32 15 7 8 19 15 26
15 21 0 17 53 -6 83 -12 14 -49 41 -83 60 -78 42 -198 114 -302 182 -44 29
-91 58 -105 64 l-25 12 23 -20z m83 -68 c13 -17 13 -17 -6 -3 -11 8 -22 16
-24 17 -2 2 0 3 6 3 6 0 17 -8 24 -17z m6 -119 c-3 -3 -12 -4 -19 -1 -8 3 -5
6 6 6 11 1 17 -2 13 -5z m370 -111 c-4 -3 -1 -13 5 -22 7 -9 8 -13 4 -9 -5 4
-15 3 -22 -3 -9 -7 -12 -6 -10 3 2 17 15 38 23 38 4 0 3 -3 0 -7z m37 -54 c-3
-5 -10 -7 -15 -3 -5 3 -7 10 -3 15 3 5 10 7 15 3 5 -3 7 -10 3 -15z" />
        <path d="M5650 5678 c0 -27 4 -38 15 -38 19 0 19 30 0 56 -13 18 -14 17 -15
-18z" />
        <path d="M4089 5579 c-17 -16 -29 -35 -26 -42 2 -7 12 -36 21 -64 14 -42 24
-56 51 -69 18 -8 41 -24 51 -35 9 -10 23 -19 31 -19 7 0 13 -4 13 -10 0 -5 7
-7 15 -4 8 4 12 11 8 17 -4 6 0 8 10 4 22 -9 44 -15 35 -10 -13 8 4 33 21 33
10 0 28 10 41 22 20 19 27 20 64 10 l41 -10 -27 19 c-15 11 -47 31 -70 43 -24
13 -85 51 -137 84 -52 34 -98 62 -102 62 -5 0 -22 -14 -40 -31z" />
        <path d="M1165 5476 c-22 -33 -12 -84 18 -95 55 -21 95 40 60 88 -27 36 -58
39 -78 7z" />
        <path d="M4910 5390 c-37 -37 -15 -69 35 -50 39 15 30 70 -11 70 -2 0 -13 -9
-24 -20z" />
        <path d="M2490 5296 c0 -2 7 -7 16 -10 8 -3 12 -2 9 4 -6 10 -25 14 -25 6z" />
        <path d="M3150 4810 c0 -5 5 -10 11 -10 5 0 7 5 4 10 -3 6 -8 10 -11 10 -2 0
-4 -4 -4 -10z" />
        <path d="M3214 4762 c22 -20 41 -32 43 -25 2 6 15 9 29 7 34 -6 34 33 -1 46
-26 10 -55 4 -55 -11 0 -5 -4 -9 -10 -9 -5 0 -7 6 -4 13 3 8 -4 13 -18 14 -20
2 -18 -2 16 -35z" />
        <path d="M3308 4703 c6 -2 18 -2 25 0 6 3 1 5 -13 5 -14 0 -19 -2 -12 -5z" />
        <path d="M4021 4901 c-17 -31 -14 -64 5 -57 9 3 20 6 25 6 14 0 10 46 -5 59
-12 10 -17 8 -25 -8z" />
        <path d="M4322 2850 c0 -19 2 -27 5 -17 2 9 2 25 0 35 -3 9 -5 1 -5 -18z" />
        <path d="M8061 4424 c0 -11 3 -14 6 -6 3 7 2 16 -1 19 -3 4 -6 -2 -5 -13z" />
        <path d="M7959 4193 c-11 -25 -18 -53 -17 -61 2 -8 13 13 25 47 26 72 21 81
-8 14z" />
        <path d="M7882 3940 c0 -14 2 -19 5 -12 2 6 2 18 0 25 -3 6 -5 1 -5 -13z" />
        <path d="M3035 4400 c-3 -6 1 -7 9 -4 18 7 21 14 7 14 -6 0 -13 -4 -16 -10z" />
        <path d="M2905 4320 c-3 -5 -1 -10 4 -10 6 0 11 5 11 10 0 6 -2 10 -4 10 -3 0
-8 -4 -11 -10z" />
        <path d="M2860 3011 c0 -5 5 -13 10 -16 6 -3 10 -2 10 4 0 5 -4 13 -10 16 -5
3 -10 2 -10 -4z" />
        <path d="M7543 3800 c0 -25 2 -35 4 -22 2 12 2 32 0 45 -2 12 -4 2 -4 -23z" />
        <path d="M6550 2925 c4 -25 11 -49 15 -53 5 -4 5 1 2 11 -4 10 -7 34 -7 53 0
19 -4 34 -8 34 -5 0 -6 -20 -2 -45z" />
        <path d="M5988 3085 c-3 -3 3 -22 12 -43 10 -20 35 -81 55 -135 21 -54 39 -96
42 -94 2 3 -14 51 -36 108 -23 57 -41 111 -41 120 0 36 -17 59 -32 44z" />
        <path d="M5572 2290 c0 -14 2 -19 5 -12 2 6 2 18 0 25 -3 6 -5 1 -5 -13z" />
        <path d="M4486 2518 c2 -35 9 -85 14 -113 9 -50 9 -50 5 14 -3 35 -5 86 -5
112 0 27 -4 49 -10 49 -5 0 -7 -26 -4 -62z" />
        <path d="M8013 2975 c-24 -17 -39 -63 -25 -77 6 -6 21 -4 41 6 35 18 52 63 30
77 -19 12 -21 11 -46 -6z" />
        <path d="M7743 2830 c-41 -25 -55 -52 -51 -102 4 -53 27 -69 65 -46 63 38 90
111 54 147 -26 26 -28 26 -68 1z" />
        <path d="M7107 2450 c-3 -8 -7 -27 -10 -42 -3 -22 0 -28 13 -28 25 0 30 20 15
55 -9 21 -14 26 -18 15z" />
        <path d="M3541 1737 c-1 -65 32 -155 71 -192 18 -16 25 -21 16 -10 -30 37 -68
131 -77 191 l-9 59 -1 -48z" />
        <path d="M6640 2242 c-8 -2 -23 -11 -32 -20 -22 -18 -24 -72 -4 -72 19 0 76
48 76 65 0 18 -22 33 -40 27z" />
        <path d="M5437 1540 l-15 -40 26 6 c35 9 33 6 26 42 -9 42 -18 40 -37 -8z" />
        <path d="M6480 1260 c0 -5 5 -10 10 -10 6 0 10 5 10 10 0 6 -4 10 -10 10 -5 0
-10 -4 -10 -10z" />
        <path d="M4863 1303 c-15 -10 -23 -26 -23 -44 0 -33 14 -37 50 -12 31 21 40
33 40 56 0 22 -36 22 -67 0z" />
        <path d="M5406 778 c-10 -38 -7 -48 14 -48 17 0 19 4 14 28 -9 39 -20 47 -28
20z" />
        <path d="M3887 733 c-3 -5 -8 -23 -12 -40 -6 -29 -4 -33 14 -33 17 0 21 6 21
34 0 33 -13 55 -23 39z" />
        <path d="M10071 10134 c0 -11 3 -14 6 -6 3 7 2 16 -1 19 -3 4 -6 -2 -5 -13z" />
        <path d="M10120 9911 c0 -6 5 -13 10 -16 6 -3 10 1 10 9 0 9 -4 16 -10 16 -5
0 -10 -4 -10 -9z" />
        <path d="M10200 9880 c0 -5 5 -10 10 -10 6 0 10 5 10 10 0 6 -4 10 -10 10 -5
0 -10 -4 -10 -10z" />
        <path d="M10153 9803 c-22 -8 -15 -43 7 -43 11 0 20 -4 20 -10 0 -5 9 -10 20
-10 13 0 20 -7 20 -20 0 -13 -7 -20 -19 -20 -33 0 -32 -28 1 -62 26 -27 29
-33 15 -36 -9 -2 -17 -13 -17 -24 0 -32 24 -15 34 25 8 30 6 40 -8 56 -15 17
-15 20 -1 34 8 9 15 21 15 27 0 18 -74 88 -87 83z" />
    </g>
</svg>
